# Blender v2.82 (sub 7) OBJ File: 'Dice20.blend'
# www.blender.org
mtllib Dice20.mtl
o Icosphere
v -0.099119 -0.156666 0.006046
v -0.102856 -0.154356 -0.000000
v -0.099119 -0.156666 -0.006046
v -0.093072 -0.160402 -0.003737
v -0.093072 -0.160402 0.003737
v 0.093072 -0.160402 -0.003737
v 0.099119 -0.156666 -0.006046
v 0.102856 -0.154356 0.000000
v 0.099119 -0.156666 0.006046
v 0.093072 -0.160402 0.003737
v -0.006046 -0.099119 0.156666
v 0.000000 -0.102856 0.154356
v 0.006046 -0.099119 0.156666
v 0.003737 -0.093072 0.160402
v -0.003737 -0.093072 0.160402
v -0.160402 -0.003737 0.093072
v -0.156666 -0.006046 0.099119
v -0.154356 0.000000 0.102856
v -0.156666 0.006046 0.099119
v -0.160402 0.003737 0.093072
v -0.156666 -0.006046 -0.099119
v -0.160402 -0.003737 -0.093072
v -0.160402 0.003737 -0.093072
v -0.156666 0.006046 -0.099119
v -0.154356 -0.000000 -0.102856
v 0.006046 -0.099119 -0.156666
v -0.000000 -0.102856 -0.154356
v -0.006046 -0.099119 -0.156666
v -0.003737 -0.093072 -0.160402
v 0.003737 -0.093072 -0.160402
v 0.154356 -0.000000 0.102856
v 0.156666 -0.006046 0.099119
v 0.160402 -0.003737 0.093072
v 0.160402 0.003737 0.093072
v 0.156666 0.006046 0.099119
v -0.006046 0.099119 0.156666
v -0.003737 0.093072 0.160402
v 0.003737 0.093072 0.160402
v 0.006046 0.099119 0.156666
v -0.000000 0.102856 0.154356
v -0.099119 0.156666 -0.006046
v -0.102856 0.154356 0.000000
v -0.099119 0.156666 0.006046
v -0.093072 0.160402 0.003737
v -0.093072 0.160402 -0.003737
v 0.003737 0.093072 -0.160402
v -0.003737 0.093072 -0.160402
v -0.006046 0.099119 -0.156666
v 0.000000 0.102856 -0.154356
v 0.006046 0.099119 -0.156666
v 0.160402 -0.003737 -0.093072
v 0.156666 -0.006046 -0.099119
v 0.154356 0.000000 -0.102856
v 0.156666 0.006046 -0.099119
v 0.160402 0.003737 -0.093072
v 0.099119 0.156666 0.006046
v 0.102856 0.154356 -0.000000
v 0.099119 0.156666 -0.006046
v 0.093072 0.160402 -0.003737
v 0.093072 0.160402 0.003737
vt 0.715127 0.254186
vt 0.586491 0.476970
vt 0.457834 0.254153
vt 0.586489 0.497627
vt 0.715107 0.720466
vt 0.457852 0.720455
vt 0.595434 0.482134
vt 0.724071 0.259350
vt 0.852727 0.482167
vt 0.577546 0.482134
vt 0.320252 0.482146
vt 0.448888 0.259317
vt 0.287091 0.975347
vt 0.029796 0.975431
vt 0.158370 0.752566
vt 0.724072 0.238693
vt 0.595453 0.015854
vt 0.852709 0.015864
vt 0.715128 0.243857
vt 0.457833 0.243824
vt 0.586509 0.021017
vt 0.296033 0.970181
vt 0.167314 0.747400
vt 0.424608 0.747361
vt 0.724051 0.735958
vt 0.852708 0.958775
vt 0.595414 0.958787
vt 0.173706 0.238671
vt 0.045088 0.015831
vt 0.302382 0.015864
vt 0.562272 0.975304
vt 0.304978 0.975342
vt 0.433553 0.752523
vt 0.457852 0.730783
vt 0.715107 0.730793
vt 0.586470 0.953622
vt 0.439945 0.243824
vt 0.182652 0.243835
vt 0.311327 0.021029
vt 0.448890 0.238660
vt 0.320271 0.015866
vt 0.577564 0.015854
vt 0.158365 0.731910
vt 0.029684 0.509150
vt 0.286978 0.509067
vt 0.424605 0.737032
vt 0.167311 0.737072
vt 0.295924 0.514229
vt 0.562122 0.509001
vt 0.433548 0.731865
vt 0.304867 0.509062
vt 0.167201 0.270792
vt 0.424495 0.270753
vt 0.295920 0.493573
vt 0.029682 0.498823
vt 0.158257 0.275957
vt 0.286976 0.498739
vt 0.587367 0.495653
vt 0.577545 0.492462
vt 0.587369 0.478942
vt 0.593439 0.487298
vt 0.720597 0.255039
vt 0.716397 0.245604
vt 0.733016 0.243858
vt 0.730868 0.253960
vt 0.299510 0.986525
vt 0.289239 0.985448
vt 0.303709 0.977090
vt 0.717255 0.720692
vt 0.727526 0.719613
vt 0.731727 0.729048
vt 0.180503 0.253938
vt 0.170231 0.255018
vt 0.166031 0.245582
vt 0.456565 0.245572
vt 0.452364 0.255007
vt 0.442092 0.253927
vt 0.165167 0.747175
vt 0.154895 0.748257
vt 0.150691 0.738822
vt 0.441225 0.738775
vt 0.437027 0.748211
vt 0.426755 0.747135
vt 0.571942 0.495479
vt 0.578016 0.503833
vt 0.571946 0.512190
vt 0.562120 0.498673
vt 0.150579 0.269048
vt 0.154778 0.259611
vt 0.165051 0.260689
vt 0.019863 0.512344
vt 0.013791 0.503990
vt 0.019859 0.495632
vt 0.288246 0.507320
vt 0.292445 0.497884
vt 0.302717 0.498961
vt 0.852728 0.492496
vt 0.595434 0.492462
vt 0.287092 0.985676
vt 0.029799 0.985760
vt 0.724052 0.715303
vt 0.562275 0.985632
vt 0.304981 0.985670
vt 0.320251 0.492474
vt 0.439945 0.254151
vt 0.182650 0.254164
vt 0.861652 0.021029
vt 0.732996 0.730795
vt 0.861652 0.953612
vt 0.164762 0.243835
vt 0.036144 0.020996
vt 0.149422 0.737076
vt 0.020742 0.514316
vt 0.571068 0.514163
vt 0.442494 0.737028
vt 0.167198 0.260463
vt 0.424492 0.260425
vt 0.020736 0.493659
vt 0.149312 0.270796
vt 0.304865 0.498735
vn 0.0000 -0.9341 -0.3569
vn -0.9341 -0.3569 0.0000
vn 0.0000 -0.9341 0.3569
vn -0.5774 -0.5774 -0.5774
vn 0.5774 -0.5774 0.5774
vn 0.9341 -0.3569 0.0000
vn 0.5774 -0.5774 -0.5774
vn 0.3569 0.0000 0.9341
vn -0.5774 0.5774 0.5774
vn -0.5774 0.5774 -0.5774
vn -0.3569 0.0000 0.9341
vn -0.9341 0.3569 0.0000
vn -0.3569 0.0000 -0.9341
vn 0.3569 0.0000 -0.9341
vn 0.9341 0.3569 0.0000
vn 0.5774 0.5774 0.5774
vn 0.0000 0.9341 0.3569
vn 0.0000 0.9341 -0.3569
vn 0.5774 0.5774 -0.5774
vn -0.5257 -0.8506 0.0000
vn 0.5257 -0.8506 0.0000
vn 0.0000 -0.5257 0.8506
vn -0.8506 0.0000 0.5257
vn -0.8506 0.0000 -0.5257
vn 0.0000 -0.5257 -0.8506
vn 0.8506 0.0000 0.5257
vn 0.0000 0.5257 0.8506
vn -0.5257 0.8506 0.0000
vn 0.0000 0.5257 -0.8506
vn 0.8506 0.0000 -0.5257
vn 0.5257 0.8506 0.0000
vn -0.3090 -0.8090 0.5000
vn 0.0000 -1.0000 0.0000
vn 0.3090 -0.8090 0.5000
vn 0.3090 -0.8090 -0.5000
vn -0.3090 -0.8090 -0.5000
vn -0.8090 -0.5000 0.3090
vn -0.5000 -0.3090 0.8090
vn -0.8090 -0.5000 -0.3090
vn -1.0000 0.0000 0.0000
vn -0.5000 -0.3090 -0.8090
vn 0.8090 -0.5000 -0.3090
vn 0.5000 -0.3090 -0.8090
vn 0.5000 -0.3090 0.8090
vn 0.8090 -0.5000 0.3090
vn -0.5000 0.3090 0.8090
vn 0.0000 0.0000 1.0000
vn -0.8090 0.5000 -0.3090
vn -0.8090 0.5000 0.3090
vn 0.0000 0.0000 -1.0000
vn -0.5000 0.3090 -0.8090
vn 1.0000 0.0000 0.0000
vn 0.5000 0.3090 0.8090
vn -0.3090 0.8090 0.5000
vn -0.3090 0.8090 -0.5000
vn 0.5000 0.3090 -0.8090
vn 0.8090 0.5000 0.3090
vn 0.8090 0.5000 -0.3090
vn 0.3090 0.8090 0.5000
vn 0.0000 1.0000 0.0000
vn 0.3090 0.8090 -0.5000
vn -0.5774 -0.5774 0.5774
usemtl Material.001
s off
f 6/1/1 4/2/1 27/3/1
f 2/4/2 16/5/2 22/6/2
f 5/7/3 10/8/3 12/9/3
f 3/10/4 21/11/4 28/12/4
f 13/13/5 9/14/5 32/15/5
f 8/16/6 51/17/6 33/18/6
f 7/19/7 26/20/7 52/21/7
f 14/22/8 31/23/8 38/24/8
f 19/25/9 36/26/9 43/27/9
f 24/28/10 41/29/10 48/30/10
f 18/31/11 15/32/11 37/33/11
f 23/34/12 20/35/12 42/36/12
f 29/37/13 25/38/13 47/39/13
f 30/40/14 46/41/14 53/42/14
f 34/43/15 55/44/15 57/45/15
f 39/46/16 35/47/16 56/48/16
f 44/49/17 40/50/17 60/51/17
f 49/52/18 45/53/18 59/54/18
f 54/55/19 50/56/19 58/57/19
f 1/58/20 2/59/20 3/10/20 4/60/20 5/61/20
f 6/62/21 7/63/21 8/16/21 9/64/21 10/65/21
f 11/66/22 12/67/22 13/13/22 14/22/22 15/68/22
f 16/69/23 17/70/23 18/71/23 19/25/23 20/35/23
f 21/72/24 22/73/24 23/74/24 24/28/24 25/38/24
f 26/75/25 27/76/25 28/77/25 29/37/25 30/40/25
f 31/78/26 32/79/26 33/80/26 34/43/26 35/47/26
f 36/81/27 37/82/27 38/83/27 39/46/27 40/50/27
f 41/84/28 42/85/28 43/86/28 44/49/28 45/87/28
f 46/88/29 47/89/29 48/90/29 49/52/29 50/56/29
f 51/91/30 52/92/30 53/93/30 54/55/30 55/44/30
f 56/48/31 57/94/31 58/95/31 59/96/31 60/51/31
f 11/97/32 1/98/32 5/7/32 12/9/32
f 4/2/33 6/1/33 10/8/33 5/7/33
f 9/14/34 13/13/34 12/99/34 10/100/34
f 26/20/35 7/19/35 6/1/35 27/3/35
f 3/10/36 28/12/36 27/3/36 4/2/36
f 16/5/37 2/4/37 1/98/37 17/101/37
f 15/32/38 18/31/38 17/102/38 11/103/38
f 21/11/39 3/10/39 2/59/39 22/104/39
f 20/35/40 23/34/40 22/6/40 16/5/40
f 25/38/41 29/37/41 28/105/41 21/106/41
f 51/17/42 8/16/42 7/19/42 52/21/42
f 30/40/43 53/42/43 52/21/43 26/20/43
f 31/23/44 14/22/44 13/13/44 32/15/44
f 8/16/45 33/18/45 32/107/45 9/64/45
f 36/26/46 19/25/46 18/108/46 37/109/46
f 14/22/47 38/24/47 37/33/47 15/32/47
f 41/29/48 24/28/48 23/110/48 42/111/48
f 19/25/49 43/27/49 42/36/49 20/35/49
f 46/41/50 30/40/50 29/37/50 47/39/50
f 24/28/51 48/30/51 47/39/51 25/38/51
f 55/44/52 34/43/52 33/112/52 51/113/52
f 35/47/53 39/46/53 38/24/53 31/23/53
f 40/50/54 44/49/54 43/114/54 36/115/54
f 45/53/55 49/52/55 48/116/55 41/117/55
f 50/56/56 54/55/56 53/118/56 46/119/56
f 56/48/57 35/47/57 34/43/57 57/45/57
f 54/55/58 58/57/58 57/45/58 55/44/58
f 60/51/59 40/50/59 39/46/59 56/48/59
f 59/120/60 45/87/60 44/49/60 60/51/60
f 58/57/61 50/56/61 49/52/61 59/54/61
f 1/98/62 11/97/62 17/101/62
